
<svg width="900" height="280" viewBox="0 0 900 280" fill="none" xmlns="http://www.w3.org/2000/svg" role="img" aria-label="Tech Orbit">
  
<defs>
  <linearGradient id="bgGrad" x1="0%" y1="0%" x2="100%" y2="0%">
    <stop offset="0%" stop-color="#0f172a">
      <animate attributeName="stop-color" values="#0f172a;#0a0f1f;#0f172a" dur="16s" repeatCount="indefinite"/>
    </stop>
    <stop offset="100%" stop-color="#1e293b">
      <animate attributeName="stop-color" values="#1e293b;#0e2133;#1e293b" dur="16s" repeatCount="indefinite"/>
    </stop>
  </linearGradient>
</defs>
<rect x="0" y="0" width="100%" height="100%" fill="url(#bgGrad)" rx="16"/>

  <circle cx="450" cy="140" r="90" fill="none" stroke="#334155" stroke-width="1.5" stroke-dasharray="3 6"/>
  <g id="orbit" >
    <g>
      <title>Python</title>
      <circle cx="540.00" cy="140.00" r="7" fill="#3776AB" />
    </g>
    
    <g>
      <title>C</title>
      <circle cx="513.64" cy="203.64" r="7" fill="#00599C" />
    </g>
    
    <g>
      <title>Excel</title>
      <circle cx="450.00" cy="230.00" r="7" fill="#217346" />
    </g>
    
    <g>
      <title>Pandas</title>
      <circle cx="386.36" cy="203.64" r="7" fill="#150458" />
    </g>
    
    <g>
      <title>NumPy</title>
      <circle cx="360.00" cy="140.00" r="7" fill="#013243" />
    </g>
    
    <g>
      <title>Jupyter</title>
      <circle cx="386.36" cy="76.36" r="7" fill="#F37626" />
    </g>
    
    <g>
      <title>Git</title>
      <circle cx="450.00" cy="50.00" r="7" fill="#F05032" />
    </g>
    
    <g>
      <title>VS Code</title>
      <circle cx="513.64" cy="76.36" r="7" fill="#007ACC" />
    </g>
    
  <animateTransform attributeName="transform" attributeType="XML" type="rotate" from="0 450 140" to="360 450 140" dur="22s" repeatCount="indefinite"/>
</g>

  
<text x="450" y="132" text-anchor="middle" font-size="28" font-weight="700" fill="#e2e8f0">exclipsee</text>
<text x="450" y="160" text-anchor="middle" font-size="14" fill="#94a3b8">Tech Orbit</text>

  <g>
    <g><circle cx="60" cy="240" r="5" fill="#3776AB" />
<text x="72" y="244" font-size="14" fill="#9aa0a6">Python</text></g><g><circle cx="155" cy="240" r="5" fill="#00599C" />
<text x="167" y="244" font-size="14" fill="#9aa0a6">C</text></g><g><circle cx="250" cy="240" r="5" fill="#217346" />
<text x="262" y="244" font-size="14" fill="#9aa0a6">Excel</text></g><g><circle cx="345" cy="240" r="5" fill="#150458" />
<text x="357" y="244" font-size="14" fill="#9aa0a6">Pandas</text></g><g><circle cx="440" cy="240" r="5" fill="#013243" />
<text x="452" y="244" font-size="14" fill="#9aa0a6">NumPy</text></g><g><circle cx="535" cy="240" r="5" fill="#F37626" />
<text x="547" y="244" font-size="14" fill="#9aa0a6">Jupyter</text></g><g><circle cx="630" cy="240" r="5" fill="#F05032" />
<text x="642" y="244" font-size="14" fill="#9aa0a6">Git</text></g><g><circle cx="725" cy="240" r="5" fill="#007ACC" />
<text x="737" y="244" font-size="14" fill="#9aa0a6">VS Code</text></g>
  </g>
</svg>
